<svg width="347" height="202" viewBox="0 0 347 202" fill="none" xmlns="http://www.w3.org/2000/svg">
<path d="M21.5612 192.573H340.262" stroke="#E0E0E0"/>
<path d="M21.5612 20.2H340.262" stroke="#E0E0E0"/>
<path d="M21.5612 63.125H340.262" stroke="#E0E0E0"/>
<path d="M21.5612 106.05H340.262" stroke="#E0E0E0"/>
<path d="M21.5612 148.975H340.262" stroke="#E0E0E0"/>
<path d="M21.5612 191.9H340.262" stroke="#E0E0E0"/>
<path d="M21.5612 192.573V196.613" stroke="#E0E0E0"/>
<path d="M71.8823 192.573V196.613" stroke="#E0E0E0"/>
<path d="M122.204 192.573V196.613" stroke="#E0E0E0"/>
<path d="M172.525 192.573V196.613" stroke="#E0E0E0"/>
<path d="M222.846 192.573V196.613" stroke="#E0E0E0"/>
<path d="M273.167 192.573V196.613" stroke="#E0E0E0"/>
<path d="M323.488 192.573V196.613" stroke="#E0E0E0"/>
<mask id="mask0_36_17163" style="mask-type:luminance" maskUnits="userSpaceOnUse" x="19" y="19" width="324" height="174">
<path d="M342.283 19.5266H19.5398V192.573H342.283V19.5266Z" fill="white"/>
</mask>
<g mask="url(#mask0_36_17163)">
<path d="M21.5612 191.9V113.204C27.432 113.204 32.4641 113.204 38.3349 113.204C44.2057 113.204 49.2378 100.327 55.1086 100.327C60.9794 100.327 66.0116 106.05 71.8824 106.05C77.7532 106.05 82.7853 60.2634 88.6561 60.2634C94.5269 60.2634 99.559 78.8642 105.43 78.8642C111.301 78.8642 116.333 54.54 122.204 54.54C128.074 54.54 133.106 98.8959 138.977 98.8959C144.848 98.8959 149.88 87.4492 155.751 87.4492C161.622 87.4492 166.654 93.1725 172.525 93.1725C178.396 93.1725 183.428 126.082 189.299 126.082C195.169 126.082 200.201 87.4492 206.072 87.4492C211.943 87.4492 216.975 77.4334 222.846 77.4334C228.717 77.4334 233.749 35.9392 239.62 35.9392C245.491 35.9392 250.523 91.7417 256.393 91.7417C262.264 91.7417 267.296 61.6942 273.167 61.6942C279.038 61.6942 284.07 71.71 289.941 71.71C295.812 71.71 300.844 88.88 306.715 88.88C312.585 88.88 317.618 104.619 323.488 104.619C329.359 104.619 334.391 57.4017 340.262 57.4017C340.262 57.4017 340.262 57.4017 340.262 191.9" fill="url(#paint0_linear_36_17163)"/>
</g>
<mask id="mask1_36_17163" style="mask-type:luminance" maskUnits="userSpaceOnUse" x="19" y="19" width="324" height="174">
<path d="M342.283 19.5266H19.5398V192.573H342.283V19.5266Z" fill="white"/>
</mask>
<g mask="url(#mask1_36_17163)">
<path d="M21.5612 113.204C27.432 113.204 32.4641 113.204 38.3349 113.204C44.2057 113.204 49.2378 100.327 55.1086 100.327C60.9794 100.327 66.0116 106.05 71.8824 106.05C77.7532 106.05 82.7853 60.2634 88.6561 60.2634C94.5269 60.2634 99.559 78.8642 105.43 78.8642C111.301 78.8642 116.333 54.54 122.204 54.54C128.074 54.54 133.106 98.8959 138.977 98.8959C144.848 98.8959 149.88 87.4492 155.751 87.4492C161.622 87.4492 166.654 93.1725 172.525 93.1725C178.396 93.1725 183.428 126.082 189.299 126.082C195.169 126.082 200.201 87.4492 206.072 87.4492C211.943 87.4492 216.975 77.4334 222.846 77.4334C228.717 77.4334 233.749 35.9392 239.62 35.9392C245.491 35.9392 250.523 91.7417 256.393 91.7417C262.264 91.7417 267.296 61.6942 273.167 61.6942C279.038 61.6942 284.07 71.71 289.941 71.71C295.812 71.71 300.844 88.88 306.715 88.88C312.585 88.88 317.618 104.619 323.488 104.619C329.359 104.619 334.391 57.4017 340.262 57.4017" stroke="#EA6A12" stroke-width="2"/>
</g>
<mask id="mask2_36_17163" style="mask-type:luminance" maskUnits="userSpaceOnUse" x="19" y="19" width="324" height="174">
<path d="M342.283 19.5266H19.5398V192.573H342.283V19.5266Z" fill="white"/>
</mask>
<g mask="url(#mask2_36_17163)">
<path d="M21.5612 191.9V133.236C27.432 133.236 32.4641 156.129 38.3349 156.129C44.2057 156.129 49.2378 118.927 55.1086 118.927C60.9794 118.927 66.0116 141.821 71.8824 141.821C77.7532 141.821 82.7853 121.789 88.6561 121.789C94.5269 121.789 99.559 128.943 105.43 128.943C111.301 128.943 116.333 120.358 122.204 120.358C128.074 120.358 133.106 147.544 138.977 147.544C144.848 147.544 149.88 137.528 155.751 137.528C161.622 137.528 166.654 133.236 172.525 133.236C178.396 133.236 183.428 147.544 189.299 147.544C195.169 147.544 200.201 144.682 206.072 144.682C211.943 144.682 216.975 136.097 222.846 136.097C228.717 136.097 233.749 121.789 239.62 121.789C245.491 121.789 250.523 146.113 256.393 146.113C262.264 146.113 267.296 124.651 273.167 124.651C279.038 124.651 284.07 126.082 289.941 126.082C295.812 126.082 300.844 123.22 306.715 123.22C312.585 123.22 317.618 144.682 323.488 144.682C329.359 144.682 334.391 140.39 340.262 140.39C340.262 140.39 340.262 140.39 340.262 191.9" fill="url(#paint1_linear_36_17163)"/>
</g>
<mask id="mask3_36_17163" style="mask-type:luminance" maskUnits="userSpaceOnUse" x="19" y="19" width="324" height="174">
<path d="M342.283 19.5266H19.5398V192.573H342.283V19.5266Z" fill="white"/>
</mask>
<g mask="url(#mask3_36_17163)">
<path d="M21.5612 133.236C27.432 133.236 32.4641 156.129 38.3349 156.129C44.2057 156.129 49.2378 118.927 55.1086 118.927C60.9794 118.927 66.0116 141.821 71.8824 141.821C77.7532 141.821 82.7853 121.789 88.6561 121.789C94.5269 121.789 99.559 128.943 105.43 128.943C111.301 128.943 116.333 120.358 122.204 120.358C128.074 120.358 133.106 147.544 138.977 147.544C144.848 147.544 149.88 137.528 155.751 137.528C161.622 137.528 166.654 133.236 172.525 133.236C178.396 133.236 183.428 147.544 189.299 147.544C195.169 147.544 200.201 144.682 206.072 144.682C211.943 144.682 216.975 136.097 222.846 136.097C228.717 136.097 233.749 121.789 239.62 121.789C245.491 121.789 250.523 146.113 256.393 146.113C262.264 146.113 267.296 124.651 273.167 124.651C279.038 124.651 284.07 126.082 289.941 126.082C295.812 126.082 300.844 123.22 306.715 123.22C312.585 123.22 317.618 144.682 323.488 144.682C329.359 144.682 334.391 140.39 340.262 140.39" stroke="#3BB77E" stroke-width="2"/>
</g>
<mask id="mask4_36_17163" style="mask-type:luminance" maskUnits="userSpaceOnUse" x="19" y="19" width="324" height="174">
<path d="M342.283 19.5266H19.5398V192.573H342.283V19.5266Z" fill="white"/>
</mask>
<g mask="url(#mask4_36_17163)">
<path d="M21.5612 191.9V171.868C27.432 171.868 32.4641 171.868 38.3349 171.868C44.2057 171.868 49.2378 164.714 55.1086 164.714C60.9794 164.714 66.0116 177.592 71.8824 177.592C77.7532 177.592 82.7853 170.437 88.6561 170.437C94.5269 170.437 99.559 166.145 105.43 166.145C111.301 166.145 116.333 164.714 122.204 164.714C128.074 164.714 133.106 167.576 138.977 167.576C144.848 167.576 149.88 176.161 155.751 176.161C161.622 176.161 166.654 177.592 172.525 177.592C178.396 177.592 183.428 169.007 189.299 169.007C195.169 169.007 200.201 177.592 206.072 177.592C211.943 177.592 216.975 164.714 222.846 164.714C228.717 164.714 233.749 164.714 239.62 164.714C245.491 164.714 250.523 167.576 256.393 167.576C262.264 167.576 267.296 169.007 273.167 169.007C279.038 169.007 284.07 171.868 289.941 171.868C295.812 171.868 300.844 173.299 306.715 173.299C312.585 173.299 317.618 177.592 323.488 177.592C329.359 177.592 334.391 170.437 340.262 170.437C340.262 170.437 340.262 170.437 340.262 191.9" fill="url(#paint2_linear_36_17163)"/>
</g>
<mask id="mask5_36_17163" style="mask-type:luminance" maskUnits="userSpaceOnUse" x="19" y="19" width="324" height="174">
<path d="M342.283 19.5266H19.5398V192.573H342.283V19.5266Z" fill="white"/>
</mask>
<g mask="url(#mask5_36_17163)">
<path d="M21.5612 171.868C27.432 171.868 32.4641 171.868 38.3349 171.868C44.2057 171.868 49.2378 164.714 55.1086 164.714C60.9794 164.714 66.0116 177.592 71.8824 177.592C77.7532 177.592 82.7853 170.437 88.6561 170.437C94.5269 170.437 99.559 166.145 105.43 166.145C111.301 166.145 116.333 164.714 122.204 164.714C128.074 164.714 133.106 167.576 138.977 167.576C144.848 167.576 149.88 176.161 155.751 176.161C161.622 176.161 166.654 177.592 172.525 177.592C178.396 177.592 183.428 169.007 189.299 169.007C195.169 169.007 200.201 177.592 206.072 177.592C211.943 177.592 216.975 164.714 222.846 164.714C228.717 164.714 233.749 164.714 239.62 164.714C245.491 164.714 250.523 167.576 256.393 167.576C262.264 167.576 267.296 169.007 273.167 169.007C279.038 169.007 284.07 171.868 289.941 171.868C295.812 171.868 300.844 173.299 306.715 173.299C312.585 173.299 317.618 177.592 323.488 177.592C329.359 177.592 334.391 170.437 340.262 170.437" stroke="#959895" stroke-width="2"/>
</g>
<defs>
<linearGradient id="paint0_linear_36_17163" x1="21.5612" y1="35.9392" x2="21.5612" y2="191.9" gradientUnits="userSpaceOnUse">
<stop stop-color="#EA6A12" stop-opacity="0.8281"/>
<stop offset="1" stop-color="#F5B589" stop-opacity="0.04"/>
</linearGradient>
<linearGradient id="paint1_linear_36_17163" x1="21.5612" y1="118.927" x2="21.5612" y2="191.9" gradientUnits="userSpaceOnUse">
<stop stop-color="#3BB77E" stop-opacity="0.8281"/>
<stop offset="1" stop-color="#9DDBBF" stop-opacity="0.04"/>
</linearGradient>
<linearGradient id="paint2_linear_36_17163" x1="21.5612" y1="164.714" x2="21.5612" y2="191.9" gradientUnits="userSpaceOnUse">
<stop stop-color="#959895" stop-opacity="0.8281"/>
<stop offset="1" stop-color="#CACCCA" stop-opacity="0.04"/>
</linearGradient>
</defs>
</svg>
