<svg width="24" height="24" viewBox="0 0 24 24" fill="none" xmlns="http://www.w3.org/2000/svg">
<path d="M15.187 3.099C14.304 4.5465 11.687 6.0465 8.45901 6.896C2.83401 8.375 2.23401 11.97 2.23401 14.2935C2.23401 18.4395 6.42101 20.8685 9.08751 20.8685C11.754 20.8685 11.9625 19.961 13.0375 19.961C14.1125 19.961 14.9075 20.254 16.499 20.254C18.0905 20.254 21.734 18.579 21.734 15.159C21.734 11.739 17.8495 7.649 17.0295 7.649C15.983 7.649 15.4505 9.145 15.4505 9.145C15.4505 9.145 15.3125 5.821 15.187 3.099Z" stroke="black" stroke-opacity="0.533333" stroke-linecap="round" stroke-linejoin="round"/>
<path d="M13.589 7.29349L13.6725 12.3885C14.95 12.3885 16.2655 10.595 16.74 10.595C16.8575 10.595 17.146 11.295 17.902 11.6905C19.242 12.392 19.8555 13.2365 19.8555 14.815C19.8711 15.2364 19.8003 15.6565 19.6476 16.0496C19.4948 16.4426 19.2633 16.8002 18.9672 17.1005C18.6712 17.4008 18.3169 17.6373 17.926 17.7956C17.5352 17.9539 17.1161 18.0306 16.6945 18.021C16.0249 17.9649 15.3762 17.7605 14.7956 17.4224C14.2149 17.0843 13.7168 16.6211 13.3375 16.0665C12.3465 17.386 11.5575 18.321 9.54751 18.321C7.53751 18.321 5.10901 16.8555 5.10901 14.071C5.10901 11.2865 6.95901 10.246 9.45701 9.46449C10.9547 8.99755 12.3548 8.26189 13.589 7.29349Z" stroke="black" stroke-opacity="0.533333" stroke-linecap="round" stroke-linejoin="round"/>
<path d="M16.7345 16.2605C17.5522 16.2605 18.215 15.5977 18.215 14.78C18.215 13.9623 17.5522 13.2995 16.7345 13.2995C15.9169 13.2995 15.254 13.9623 15.254 14.78C15.254 15.5977 15.9169 16.2605 16.7345 16.2605Z" stroke="black" stroke-opacity="0.533333" stroke-linecap="round" stroke-linejoin="round"/>
<path d="M11.474 13.9235C11.474 14.4458 11.2665 14.9467 10.8972 15.316C10.5279 15.6853 10.0271 15.8927 9.50477 15.8927C8.9825 15.8927 8.48161 15.6853 8.1123 15.316C7.743 14.9467 7.53552 14.4458 7.53552 13.9235C7.53552 12.836 8.30902 12.0635 9.42802 11.8015C10.1572 11.5806 10.8475 11.2474 11.474 10.814V13.9235Z" stroke="black" stroke-opacity="0.533333" stroke-linecap="round" stroke-linejoin="round"/>
</svg>
