<svg width="24" height="24" viewBox="0 0 24 24" fill="none" xmlns="http://www.w3.org/2000/svg">
<path fill-rule="evenodd" clip-rule="evenodd" d="M19 21.5H6C5.07174 21.5 4.1815 21.1312 3.52513 20.4749C2.86875 19.8185 2.5 18.9283 2.5 18V4.94299C2.5 3.87599 3.556 3.19899 4.485 3.52099C4.618 3.56699 4.748 3.634 4.872 3.723L5.047 3.848C5.47266 4.15002 5.98188 4.31185 6.5038 4.31095C7.02572 4.31005 7.53438 4.14648 7.959 3.84299C8.55504 3.41881 9.26843 3.19087 10 3.19087C10.7316 3.19087 11.445 3.41881 12.041 3.84299C12.4656 4.14648 12.9743 4.31005 13.4962 4.31095C14.0181 4.31185 14.5273 4.15002 14.953 3.848L15.128 3.723C16.121 3.013 17.5 3.72299 17.5 4.94299V12.5H21C21.1989 12.5 21.3897 12.579 21.5303 12.7197C21.671 12.8603 21.75 13.0511 21.75 13.25V18.75C21.75 19.4793 21.4603 20.1788 20.9445 20.6945C20.4288 21.2103 19.7293 21.5 19 21.5ZM17.75 14V18.75C17.75 19.0815 17.8817 19.3995 18.1161 19.6339C18.3505 19.8683 18.6685 20 19 20C19.3315 20 19.6495 19.8683 19.8839 19.6339C20.1183 19.3995 20.25 19.0815 20.25 18.75V14H17.75ZM13.5 9.75C13.5 9.55108 13.421 9.36032 13.2803 9.21967C13.1397 9.07901 12.9489 9 12.75 9H6.75C6.55109 9 6.36032 9.07901 6.21967 9.21967C6.07902 9.36032 6 9.55108 6 9.75C6 9.94891 6.07902 10.1397 6.21967 10.2803C6.36032 10.421 6.55109 10.5 6.75 10.5H12.75C12.9489 10.5 13.1397 10.421 13.2803 10.2803C13.421 10.1397 13.5 9.94891 13.5 9.75ZM12.5 12.75C12.5 12.5511 12.421 12.3603 12.2803 12.2197C12.1397 12.079 11.9489 12 11.75 12H6.75C6.55109 12 6.36032 12.079 6.21967 12.2197C6.07902 12.3603 6 12.5511 6 12.75C6 12.9489 6.07902 13.1397 6.21967 13.2803C6.36032 13.421 6.55109 13.5 6.75 13.5H11.75C11.9489 13.5 12.1397 13.421 12.2803 13.2803C12.421 13.1397 12.5 12.9489 12.5 12.75ZM12.75 15C12.9489 15 13.1397 15.079 13.2803 15.2197C13.421 15.3603 13.5 15.5511 13.5 15.75C13.5 15.9489 13.421 16.1397 13.2803 16.2803C13.1397 16.421 12.9489 16.5 12.75 16.5H6.75C6.55109 16.5 6.36032 16.421 6.21967 16.2803C6.07902 16.1397 6 15.9489 6 15.75C6 15.5511 6.07902 15.3603 6.21967 15.2197C6.36032 15.079 6.55109 15 6.75 15H12.75Z" fill="black" fill-opacity="0.533333"/>
</svg>
