<svg width="20" height="20" viewBox="0 0 20 20" fill="none" xmlns="http://www.w3.org/2000/svg">
<path opacity="0.4" d="M13.3964 1.66666H16.218C17.3866 1.66666 18.3334 2.62153 18.3334 3.79996V6.64542C18.3334 7.82386 17.3866 8.77874 16.218 8.77874H13.3964C12.2279 8.77874 11.2809 7.82386 11.2809 6.64542V3.79996C11.2809 2.62153 12.2279 1.66666 13.3964 1.66666Z" fill="black" fill-opacity="0.533333"/>
<path fill-rule="evenodd" clip-rule="evenodd" d="M3.78212 1.66666H6.60376C7.77232 1.66666 8.71919 2.62153 8.71919 3.79996V6.64542C8.71919 7.82386 7.77232 8.77874 6.60376 8.77874H3.78212C2.61357 8.77874 1.66669 7.82386 1.66669 6.64542V3.79996C1.66669 2.62153 2.61357 1.66666 3.78212 1.66666ZM3.78212 11.2212H6.60376C7.77232 11.2212 8.71919 12.1762 8.71919 13.3546V16.2C8.71919 17.3777 7.77232 18.3333 6.60376 18.3333H3.78212C2.61357 18.3333 1.66669 17.3777 1.66669 16.2V13.3546C1.66669 12.1762 2.61357 11.2212 3.78212 11.2212ZM16.2179 11.2212H13.3963C12.2277 11.2212 11.2809 12.1762 11.2809 13.3546V16.2C11.2809 17.3777 12.2277 18.3333 13.3963 18.3333H16.2179C17.3864 18.3333 18.3334 17.3777 18.3334 16.2V13.3546C18.3334 12.1762 17.3864 11.2212 16.2179 11.2212Z" fill="black" fill-opacity="0.533333"/>
</svg>
