<svg width="24" height="24" viewBox="0 0 24 24" fill="none" xmlns="http://www.w3.org/2000/svg">
<path d="M4 18V7.1L2.45 3.75C2.33334 3.5 2.325 3.24567 2.425 2.987C2.525 2.72833 2.7 2.541 2.95 2.425C3.2 2.30833 3.45434 2.296 3.713 2.388C3.97167 2.48 4.159 2.65067 4.275 2.9L6.2 7.05H17.8L19.725 2.9C19.8417 2.65 20.0293 2.475 20.288 2.375C20.5467 2.275 20.8007 2.29167 21.05 2.425C21.3 2.54167 21.475 2.72933 21.575 2.988C21.675 3.24667 21.6667 3.50067 21.55 3.75L20 7.1V18C20 18.55 19.8043 19.021 19.413 19.413C19.0217 19.805 18.5507 20.0007 18 20H6C5.45 20 4.97934 19.8043 4.588 19.413C4.19667 19.0217 4.00067 18.5507 4 18ZM10 13H14C14.2833 13 14.521 12.904 14.713 12.712C14.905 12.52 15.0007 12.2827 15 12C15 11.7167 14.904 11.4793 14.712 11.288C14.52 11.0967 14.2827 11.0007 14 11H10C9.71667 11 9.47934 11.096 9.288 11.288C9.09667 11.48 9.00067 11.7173 9 12C9 12.2833 9.096 12.521 9.288 12.713C9.48 12.905 9.71734 13.0007 10 13Z" fill="black" fill-opacity="0.533333"/>
</svg>
