<svg width="24" height="24" viewBox="0 0 24 24" fill="none" xmlns="http://www.w3.org/2000/svg">
<path d="M13.885 9.59201V8.66201C14.4217 8.39001 14.997 8.18601 15.611 8.05001C16.225 7.91401 16.8547 7.84601 17.5 7.84601C17.8693 7.84601 18.2237 7.86967 18.563 7.91701C18.903 7.96434 19.2537 8.03167 19.615 8.11901V9.02701C19.2663 8.91567 18.9263 8.83834 18.595 8.79501C18.2637 8.75234 17.8987 8.73101 17.5 8.73101C16.8533 8.73101 16.2227 8.80367 15.608 8.94901C14.9927 9.09434 14.4183 9.30867 13.885 9.59201ZM13.885 15.054V14.084C14.3963 13.8127 14.9683 13.6093 15.601 13.474C16.2337 13.3373 16.8667 13.269 17.5 13.269C17.8693 13.269 18.2237 13.2927 18.563 13.34C18.903 13.388 19.2537 13.4553 19.615 13.542V14.45C19.2663 14.3387 18.9263 14.2613 18.595 14.218C18.2637 14.1753 17.8987 14.154 17.5 14.154C16.8533 14.154 16.2227 14.232 15.608 14.388C14.9927 14.5447 14.4183 14.7667 13.885 15.054ZM13.885 12.342V11.373C14.4217 11.101 14.997 10.8973 15.611 10.762C16.2243 10.626 16.854 10.558 17.5 10.558C17.8693 10.558 18.2237 10.5813 18.563 10.628C18.903 10.676 19.2537 10.7437 19.615 10.831V11.738C19.2663 11.6267 18.9263 11.5497 18.595 11.507C18.2637 11.4637 17.8987 11.442 17.5 11.442C16.8533 11.442 16.2227 11.5213 15.608 11.68C14.9927 11.838 14.4183 12.0587 13.885 12.342ZM12.5 17.32C13.31 16.8673 14.1277 16.5407 14.953 16.34C15.7777 16.14 16.6267 16.04 17.5 16.04C18.1 16.04 18.6393 16.077 19.118 16.151C19.5973 16.2257 20.0197 16.3243 20.385 16.447C20.5383 16.511 20.6793 16.5013 20.808 16.418C20.936 16.3347 21 16.2033 21 16.024V7.00801C21 6.89267 20.968 6.79001 20.904 6.70001C20.84 6.61001 20.731 6.53334 20.577 6.47001C20.027 6.27467 19.5267 6.14134 19.076 6.07001C18.6253 5.99801 18.1 5.96201 17.5 5.96201C16.6267 5.96201 15.7557 6.09067 14.887 6.34801C14.0177 6.60601 13.222 6.99267 12.5 7.50801V17.32ZM12 18.77C11.1867 18.214 10.3133 17.7867 9.38 17.488C8.44667 17.1887 7.48667 17.039 6.5 17.039C5.98 17.039 5.46867 17.0827 4.966 17.17C4.464 17.2573 3.97533 17.3973 3.5 17.59C3.13733 17.7347 2.79667 17.691 2.478 17.459C2.15933 17.227 2 16.906 2 16.496V6.83101C2 6.58367 2.065 6.35401 2.195 6.14201C2.325 5.93067 2.50733 5.78334 2.742 5.70001C3.33333 5.44467 3.94533 5.25801 4.578 5.14001C5.21067 5.02134 5.85133 4.96201 6.5 4.96201C7.48 4.96201 8.43533 5.10301 9.366 5.38501C10.2973 5.66701 11.1753 6.07701 12 6.61501C12.8247 6.07701 13.7027 5.66701 14.634 5.38501C15.5653 5.10301 16.5207 4.96201 17.5 4.96201C18.1487 4.96201 18.7893 5.02101 19.422 5.13901C20.0553 5.25767 20.6673 5.44467 21.258 5.70001C21.4927 5.78334 21.675 5.93067 21.805 6.14201C21.935 6.35401 22 6.58367 22 6.83101V16.496C22 16.9053 21.828 17.2193 21.484 17.438C21.1393 17.658 20.7727 17.6953 20.384 17.55C19.9213 17.37 19.4487 17.24 18.966 17.16C18.4833 17.0787 17.9947 17.038 17.5 17.038C16.5133 17.038 15.5533 17.1877 14.62 17.487C13.6867 17.7857 12.8133 18.213 12 18.769" fill="black" fill-opacity="0.533333"/>
</svg>
