<svg width="19" height="18" viewBox="0 0 19 18" fill="none" xmlns="http://www.w3.org/2000/svg">
<path d="M17.25 3.75H2.25C2.05109 3.75 1.86032 3.67098 1.71967 3.53033C1.57902 3.38968 1.5 3.19891 1.5 3C1.5 2.80109 1.57902 2.61032 1.71967 2.46967C1.86032 2.32902 2.05109 2.25 2.25 2.25H15C15.1989 2.25 15.3897 2.17098 15.5303 2.03033C15.671 1.88968 15.75 1.69891 15.75 1.5C15.75 1.30109 15.671 1.11032 15.5303 0.96967C15.3897 0.829018 15.1989 0.75 15 0.75H2.25C1.65326 0.75 1.08097 0.987053 0.65901 1.40901C0.237053 1.83097 0 2.40326 0 3V15C0 15.5967 0.237053 16.169 0.65901 16.591C1.08097 17.0129 1.65326 17.25 2.25 17.25H17.25C17.6478 17.25 18.0294 17.092 18.3107 16.8107C18.592 16.5294 18.75 16.1478 18.75 15.75V5.25C18.75 4.85218 18.592 4.47064 18.3107 4.18934C18.0294 3.90804 17.6478 3.75 17.25 3.75ZM13.875 11.25C13.6525 11.25 13.435 11.184 13.25 11.0604C13.065 10.9368 12.9208 10.7611 12.8356 10.5555C12.7505 10.35 12.7282 10.1238 12.7716 9.90552C12.815 9.68729 12.9222 9.48684 13.0795 9.32951C13.2368 9.17217 13.4373 9.06502 13.6555 9.02162C13.8738 8.97821 14.1 9.00049 14.3055 9.08564C14.5111 9.17078 14.6868 9.31498 14.8104 9.49998C14.934 9.68499 15 9.9025 15 10.125C15 10.4234 14.8815 10.7095 14.6705 10.9205C14.4595 11.1315 14.1734 11.25 13.875 11.25Z" fill="black" fill-opacity="0.533333"/>
</svg>
